<svg width="1000" height="240" viewBox="0 0 100 24" fill="none" xmlns="http://www.w3.org/2000/svg">
<g clip-path="url(#clip0_467_35)">
<path stroke="#E3E1E1" stroke-width="0.4px" stroke-opacity="0.5" fill-rule="evenodd" clip-rule="evenodd" d="M11.8372 15.2502C11.1803 14.9262 9.9441 14.5606 8.50745 14.1357C5.66739 13.2958 2.04383 12.2241 0.562722 10.7844C0.305477 10.5342 0.112581 10.2729 8.49235e-05 10C8.49235e-05 10 -0.0401917 11.5057 1.63352 12.5811C2.4946 13.1343 4.25288 13.7187 5.96286 14.2249C6.08724 14.2619 6.21115 14.2981 6.33476 14.3342L3.21217 19.4082C2.94675 19.8543 2.27131 20 2.27131 20H2.90385H3.16619H6.47318L9.22062 15.1483C9.22975 15.1509 9.23895 15.1543 9.24813 15.1577C9.25712 15.161 9.26609 15.1642 9.27494 15.1668C9.31939 15.1799 9.3626 15.1933 9.40467 15.2063C9.43564 15.2158 9.466 15.2252 9.49577 15.2342C9.64129 15.2782 9.77092 15.3198 9.88125 15.3567C9.88125 15.3567 10.3942 15.5035 10.8453 15.7166C11.1939 15.8818 11.5125 16.1198 11.5215 16.3287C11.5215 16.3287 11.6792 16.071 11.8304 15.8952C11.8304 15.8952 12.2074 15.4326 11.8372 15.2502ZM15.6262 5L18 20H14.89L13.4346 8.16773L11.4552 12.0088L11.319 11.9572L11.3189 11.9572C10.8807 11.7914 10.0278 11.4687 9 11.0465L12.4144 5H15.6262ZM0.920015 3C0.920015 3 -0.227474 7.10912 6.4868 10.1162C5.88553 9.87384 5.27173 9.61861 4.67566 9.35846C2.5232 8.29453 -0.597227 6.13096 0.920015 3ZM22.5036 20H19.9041V5H22.5036V20ZM29.5378 16.051C29.5378 16.0745 29.538 16.0988 29.5383 16.1237V16.1237C29.5398 16.2817 29.5415 16.4655 29.4864 16.6332C29.2526 17.3877 28.5041 18.0776 27.4623 18.0776C26.633 18.0776 25.9487 17.6034 25.9487 16.5684C25.9487 14.9728 27.7028 14.5632 29.5378 14.6063V16.051ZM32.1374 13.4204C32.1374 11.1348 31.1902 9 27.8735 9C26.2363 9 24.9017 9.45284 24.1363 9.92723L24.6489 11.6522C25.3506 11.1997 26.413 10.8762 27.4335 10.8762C29.262 10.8762 29.5378 12.0189 29.5378 12.7089V12.8813C25.7149 12.8598 23.3951 14.1967 23.3951 16.8489C23.3951 18.4445 24.5654 20 26.6491 20C27.9885 20 29.0737 19.3986 29.7115 18.6232H29.7753L29.9455 19.7088H32.3055C32.199 19.0884 32.1374 18.164 32.1374 17.2154V13.4204ZM35.92 11.2644H36.005C36.5153 9.83496 37.7412 9 38.847 9C39 9 39.0863 9.01973 39.1969 9.04501C39.2707 9.06187 39.3553 9.08119 39.4776 9.09879V11.6605C39.398 11.649 39.3287 11.6375 39.2642 11.6268C39.0808 11.5962 38.9355 11.5721 38.6995 11.5721C37.4452 11.5721 36.5821 12.4113 36.3483 13.6257C36.3058 13.8686 36.2663 14.1559 36.2663 14.4651V20H33.6667V12.7426C33.6667 11.2852 33.6238 10.3114 33.56 9.19965H35.8349L35.92 11.2644Z" fill="#1A2B33"/>
<path stroke="#E3E1E1" stroke-width="0.4px" stroke-opacity="0.5" fill-rule="evenodd" clip-rule="evenodd" d="M47.6768 11.5394C45.6996 10.7624 44.8278 10.0937 44.8278 8.73386C44.8278 7.74086 45.5719 6.55383 47.5281 6.55383C48.8249 6.55383 49.7817 6.98568 50.2495 7.2446L50.7598 5.71219C50.122 5.34523 49.0589 5 47.5918 5C44.8066 5 42.9569 6.68329 42.9569 8.94962C42.9569 10.9997 44.4026 12.2301 46.7414 13.0717C48.6762 13.8272 49.4417 14.6043 49.4417 15.9641C49.4417 17.4314 48.3361 18.4459 46.4437 18.4459C45.1681 18.4459 43.9561 18.0142 43.127 17.4963L42.6592 19.0719C43.4245 19.5897 44.9341 20 46.3162 20C49.6967 20 51.3338 18.0575 51.3338 15.8127C51.3338 13.6763 50.1007 12.489 47.6768 11.5394ZM54.7693 6L52.9343 6.5087V9.09103H51.4051V10.5227H52.9343V16.3949C52.9343 17.6556 53.1441 18.6066 53.6756 19.1817C54.1221 19.7124 54.8329 20 55.7047 20C56.4275 20 57.006 19.8894 57.3675 19.7344L57.2847 18.2749C57.0509 18.3412 56.6755 18.4074 56.1865 18.4074C55.1447 18.4074 54.7693 17.6556 54.7693 16.3287V10.5227H57.5218V9.09103H54.7693V6ZM65.1675 9H67.0025V16.829C67.0025 17.9434 67.0245 18.9394 67.0883 19.7409H65.4299L65.3236 17.9775H65.2811C64.7921 18.9394 63.6865 20 61.8581 20C60.2422 20 58.2863 19.0803 58.2863 15.291V9H60.2742V14.9566C60.2742 17.0074 60.841 18.3892 62.5419 18.3892C63.7963 18.3892 64.6397 17.4752 64.9797 16.606C65.086 16.3165 65.1675 15.9598 65.1675 15.6031V9ZM75.8717 15.5386L75.872 15.6366C75.8729 15.8844 75.8737 16.1039 75.8173 16.3232C75.4771 17.6858 74.3442 18.4913 73.0899 18.4913C71.07 18.4913 70.0571 16.8186 70.0571 14.7952C70.0571 12.5859 71.209 10.9341 73.1438 10.9341C74.547 10.9341 75.539 11.8841 75.8153 13.0402C75.8733 13.2462 75.8725 13.5204 75.8719 13.7391L75.8717 13.8041V15.5386ZM77.8596 5H75.8717V11.0539C75.3946 10.1804 74.339 9.53503 72.7862 9.53503C70.2774 9.53503 68.1513 11.5664 68.1724 14.8907C68.1724 17.9257 70.086 20 72.5736 20C74.2533 20 75.5076 19.1079 76.0817 18.0684H76.1242L76.2092 19.7019H77.8889C77.8416 19.2619 77.8483 18.56 77.855 17.8648V17.8648V17.8648V17.8647V17.8647V17.8646V17.8645C77.8573 17.6214 77.8596 17.379 77.8596 17.149V5ZM81.5297 20H79.6947V9H81.5297V20ZM87.86 9C86.8853 9 85.9804 9.24203 85.2115 9.70108C85.5938 10.0488 86.0138 10.3976 86.4776 10.746C86.8595 10.5482 87.3042 10.4347 87.8175 10.4347C90.0288 10.4347 90.9005 12.6957 90.9005 14.4781C90.9005 16.8478 89.5609 18.565 87.775 18.565C85.9466 18.565 84.6497 16.8259 84.6497 14.5217C84.6497 13.192 85.0732 11.8245 86.0065 11.0568C85.5713 10.8764 85.0043 10.6318 84.3772 10.3379C83.3774 11.2959 82.7573 12.7407 82.7573 14.5868C82.7573 17.913 84.9047 20 87.69 20C90.1775 20 92.8139 18.3042 92.8139 14.4131C92.8139 11.1957 90.8153 9 87.86 9ZM95.3439 11.8754C95.3439 12.7464 95.9605 13.1387 97.3 13.6613C99.086 14.3583 100 15.2732 100 16.8414C100 18.6928 98.5969 20 96.1519 20C95.0251 20 93.9833 19.7166 93.2604 19.2809L93.7282 17.8218C94.281 18.192 95.2589 18.5839 96.1945 18.5839C97.5551 18.5839 98.1931 17.8869 98.1931 17.0158C98.1931 16.1008 97.6614 15.6 96.2795 15.0771C94.4296 14.4019 93.558 13.3563 93.558 12.0931C93.558 10.3941 94.8974 9 97.1087 9C98.1506 9 99.0647 9.30502 99.6388 9.65359L99.171 11.0476C98.7671 10.7859 98.023 10.4375 97.0662 10.4375C95.9605 10.4375 95.3439 11.0911 95.3439 11.8754Z" fill="#1A2B33"/>
<path stroke="#E3E1E1" stroke-width="0.4px" stroke-opacity="0.5" fill-rule="evenodd" clip-rule="evenodd" d="M13.4278 13.9451C13.4278 13.9451 13.5543 14.0624 13.6884 14.2657C13.9083 14.5986 14.1477 15.1626 13.8847 15.8207C13.8017 16.0274 13.6693 16.2438 13.471 16.4649C12.2552 17.8192 12.1232 18.1869 12.0934 19C12.0934 19 11.1199 17.6608 12.2252 16.3133C12.5883 15.8709 12.7187 15.5495 12.7115 15.3108C12.6982 14.8764 12.2292 14.7149 11.8735 14.5925C11.8292 14.5773 11.7867 14.5626 11.747 14.5482C11.2136 14.3533 4.70779 12.0946 4.70779 12.0946C4.70779 12.0946 3.94639 11.8126 3.03573 11.273C2.267 10.8174 1.39209 10.1782 0.77965 9.36982C0.775906 9.36486 0.772108 9.35992 0.768314 9.35499C0.763166 9.3483 0.758024 9.34162 0.75303 9.33488C0.609005 9.1411 0.480236 8.93809 0.371507 8.72538C0.0212427 8.03984 -0.119192 7.25703 0.116511 6.38309C0.15061 6.25735 0.192188 6.1296 0.24214 6C0.24214 6 0.209835 6.26473 0.412636 6.70924C0.723716 7.39078 1.58756 8.49481 3.96867 9.71598C7.09638 11.3204 11.8513 12.929 11.8513 12.929C11.8513 12.929 12.5949 13.2077 13.1192 13.636C13.2366 13.7322 13.343 13.8357 13.4278 13.9451ZM86.882 11C86.882 11 86.7977 10.9713 86.6502 10.9187C86.4986 10.8648 86.2792 10.7851 86.0067 10.6822C85.5715 10.5177 85.0045 10.2945 84.3774 10.0265C83.08 9.47217 81.5264 8.72566 80.3495 7.90357C78.0235 6.27851 78.8384 3.14658 79.6853 2C79.6853 2 79.342 3.42318 80.2041 5.31542C80.4696 5.89841 80.85 6.52573 81.39 7.16974C81.7882 7.64494 82.2728 8.12912 82.863 8.61103C83.8681 9.43197 85.1774 10.2466 86.882 11Z" fill="#3A83F2"/>
</g>
<defs>
<clipPath id="clip0_467_35">
<rect width="100" height="24" fill="white"/>
</clipPath>
</defs>
</svg>
