<svg width="79.375mm" height="19.524mm" version="1.1" viewBox="0 0 79.375 19.524" xmlns="http://www.w3.org/2000/svg"><g transform="translate(-92.69 -122.23)" fill="#da1515"><path d="m104.38 137.51h-1.2797c-0.22751-5.1315-4.4079-7.0798-5.7161-7.3817l-0.02853 7.3817h-1.166v-8.8086c4.5217 0.49396 8.304 4.2808 8.1902 8.8086zm3.3273 0h-1.2797c-0.11375-5.845-4.4932-10.208-10.778-10.647v10.647h-1.1375v-11.882h0.71096c7.1949 0 12.655 5.7352 12.484 11.882zm3.5263 0.0274h-1.2513c0.11375-7.7384-6.9389-14.05-14.788-14.105h-1.2228v14.105h-1.2797v-15.312h2.5026c8.9865 0 16.181 7.025 16.039 15.312z" fill="#da1515" fill-rule="evenodd"/></g><path d="m61.916 11.637c-2.2024-2.1611-4.0282-3.9297-4.0575-3.9304-0.02925-6.593e-4 -0.05317 1.7051-0.05317 3.7905v3.7917h-1.7718l0.0098-4.1638c0.0054-2.2901 0.02929-4.9395 0.05316-5.8875l0.04342-1.7237 3.9689 3.894c2.1829 2.1417 3.9928 3.8803 4.022 3.8634 0.02925-0.01681 0.05316-1.7509 0.05316-3.8535v-3.823h1.7718v5.9888c0 3.2938-8e-3 5.9874-0.01771 5.9857-0.0098-0.0016-1.8197-1.7712-4.022-3.9323zm10.879 3.7904c-2.5357-0.26743-4.6106-2.0594-5.2894-4.5681-0.21818-0.80634-0.22228-2.1806-0.0089-2.9767 0.31134-1.1614 0.8149-2.0238 1.6599-2.8427 1.3057-1.2654 2.6886-1.7843 4.554-1.7087 1.3878 0.056253 2.4796 0.44559 3.5355 1.2608l0.47415 0.36604-0.34751 0.39919c-0.19113 0.21956-0.44426 0.49102-0.56252 0.60326l-0.21501 0.20407-0.30548-0.26242c-0.3975-0.34147-1.1747-0.71312-1.7958-0.85873-0.74265-0.17412-1.9684-0.11239-2.5988 0.13087-1.2905 0.49795-2.3086 1.5645-2.7542 2.8855-0.21303 0.63148-0.25868 1.5846-0.10683 2.2305 0.37202 1.5824 1.6168 2.9403 3.1269 3.4111 0.55063 0.17168 0.67919 0.18582 1.3651 0.15013 1.2836-0.06678 2.2027-0.46422 3.063-1.3244 0.4874-0.4874 0.88329-1.0854 1.022-1.5439l0.04825-0.15946h-2.0955c-1.1525 0-2.0942-0.02393-2.0927-0.05316 0.0014-0.02924 0.1439-0.35614 0.31627-0.72645l0.3134-0.67329 5.4114-0.037142-0.04854 0.5357c-0.19559 2.1585-1.5553 4.0951-3.5329 5.0321-0.94196 0.44627-2.0802 0.63714-3.1357 0.52582zm-51.206-5.9856v-5.847h2.2196c2.4419 0 2.5987 0.02065 3.4147 0.44971 0.54496 0.28653 1.2125 0.9546 1.5038 1.5051 0.78967 1.4919 0.53039 3.2629-0.65336 4.4628-0.89684 0.90903-1.6799 1.1658-3.555 1.1658h-1.2289v4.1106h-1.7009zm4.6334 0.036105c0.733-0.37434 1.1868-1.1716 1.1893-2.0895 0.0024-0.91526-0.40676-1.6449-1.1552-2.0595-0.37394-0.20712-0.39878-0.21073-1.6105-0.23406-0.71921-0.01385-1.2588 0.00433-1.2982 0.043791-0.04206 0.042063-0.04823 0.91418-0.01638 2.3149l0.05111 2.2474 1.2471-0.023301c1.1648-0.021761 1.27-0.034956 1.5928-0.19981zm4.2965-0.036105v-5.847h7.1582v1.5737l-5.3509-0.048189v2.9749l5.3509 0.037146v1.4866h-5.3863v4.1815h5.3863v1.4883h-7.1582zm8.5756 0v-5.847h1.8427v10.206h5.3155v1.4883h-7.1582zm8.4339 0v-5.847h7.1582v1.5805l-5.3863-0.076552v2.9611h5.3863v1.4883h-5.3863v4.2524h5.3863v1.4883h-7.1582z" fill="#da1515"/></svg>
